<svg width="28" height="28" viewBox="0 0 28 28" fill="none" xmlns="http://www.w3.org/2000/svg">
<path fill-rule="evenodd" clip-rule="evenodd" d="M24.48 5.40002C25.2975 6.37195 25.9711 7.45638 26.48 8.62002C27.2212 10.3166 27.6026 12.1485 27.6 14C27.5945 21.4734 21.5433 27.5335 14.07 27.55C12.3311 27.5491 10.609 27.2094 8.99997 26.55C7.85232 26.094 6.77497 25.4779 5.79997 24.72C1.65295 21.5596 -0.309009 16.2974 0.756684 11.1935C1.82238 6.08949 5.72606 2.05206 10.7912 0.8151C15.8564 -0.421862 21.1817 1.36178 24.48 5.40002ZM18.58 4.19002C17.1642 3.53116 15.6215 3.18985 14.06 3.19002L14.07 3.17002C10.367 3.16726 6.92079 5.0618 4.93894 8.18977C2.95708 11.3177 2.71592 15.243 4.29997 18.59C4.75166 18.1155 5.03001 17.5024 5.08997 16.85C5.45368 14.3374 7.42738 12.3637 9.93997 12C11.3576 11.8715 12.4897 10.7644 12.65 9.35002C13.0137 6.83743 14.9874 4.86373 17.5 4.50002C17.8718 4.44337 18.2347 4.33919 18.58 4.19002ZM5.78997 21C5.82997 20.9634 5.86997 20.9278 5.90998 20.8922L5.91004 20.8922C5.99002 20.8211 6.06999 20.75 6.14997 20.67C7.03962 19.8075 7.61068 18.6689 7.76997 17.44C7.83455 16.7493 8.14297 16.1041 8.63997 15.62C9.11821 15.1222 9.76194 14.8163 10.45 14.76C12.9626 14.3963 14.9363 12.4226 15.3 9.91002C15.3432 9.18753 15.6533 8.50686 16.17 8.00002C16.66 7.51187 17.3099 7.21712 18 7.17002C19.1239 7.01538 20.1721 6.51573 21 5.74002C21.9426 6.52209 22.7413 7.46292 23.36 8.52002C23.322 8.57137 23.2784 8.61833 23.23 8.66002C22.7526 9.16222 22.1097 9.47478 21.42 9.54002C18.9042 9.89746 16.9274 11.8743 16.57 14.39C16.4247 15.8094 15.2998 16.93 13.88 17.07C11.3604 17.4309 9.37638 19.4027 8.99997 21.92C8.94615 22.4088 8.77831 22.878 8.50997 23.29C7.48397 22.6809 6.56505 21.9072 5.78997 21ZM11.06 24.44C12.0354 24.7197 13.0452 24.8611 14.06 24.86V24.81C17.409 24.797 20.5633 23.2338 22.6021 20.5768C24.6409 17.9197 25.3343 14.4683 24.48 11.23C23.7208 11.7668 22.842 12.1101 21.92 12.23C20.504 12.3745 19.3844 13.494 19.24 14.91C18.8751 17.4257 16.8964 19.4004 14.38 19.76C12.964 19.9045 11.8444 21.024 11.7 22.44C11.6105 23.1402 11.3936 23.818 11.06 24.44Z" fill="#696871"/>
</svg>
