<svg width="25" height="25" viewBox="0 0 25 25" fill="none" xmlns="http://www.w3.org/2000/svg">
<path d="M15.0279 2.19271C13.8996 3.32795 13.3357 4.90689 13.4897 6.50007L13.4632 6.4736C13.6215 8.34843 12.9452 10.1977 11.6148 11.5281C10.2844 12.8585 8.43512 13.5348 6.56029 13.3765L6.58676 13.403C4.31677 13.1917 2.15801 14.4265 1.18927 16.4902C0.220525 18.554 0.649813 21.0036 2.26261 22.6149C3.8754 24.2262 6.32539 24.6533 8.38825 23.6827C10.4511 22.7121 11.6839 20.5522 11.4706 18.2824L11.4985 18.3089C11.3403 16.4341 12.0165 14.5848 13.347 13.2544C14.6774 11.924 16.5266 11.2477 18.4015 11.4059L18.3735 11.3795C20.8683 11.6038 23.1897 10.0827 23.9799 7.7057C24.7701 5.32874 23.8215 2.72046 21.689 1.4065C19.5564 0.0925373 16.8001 0.418081 15.0323 2.19271H15.0279Z" fill="#5454D4"/>
</svg>
